<svg xmlns="http://www.w3.org/2000/svg" viewBox="0 0 500 500"><path d="M179.42 325.34c-4.4 9.39-11.52 15.88-5.45 22.67 6.04 6.75 14.27 2.17 20.73-.61 8.83-3.8 17.02-9.15 25.33-14.1 11.87-7.07 24.3-9.45 37.74-5.46 2.63.78 6.18 2.75 7.87 1.74 20.73-12.29 35.63.76 51.36 11.07 6.16 4.04 12.62 7.8 19.38 10.68 5.01 2.14 10.98 5.46 16.17 1.14 6-4.99 2.09-11.19.13-17.36 8.36-3.22 11.88 2.58 14.14 8.07 4.94 12 5.42 27.52-6.21 32.24-20.04 8.14-24.37 24.89-31.77 41.05-11.32 24.71-36.25 33.33-57.1 46.53-3.66 2.32-11.16 2.47-14.83.24-28.24-17.18-61.89-29.97-64.53-70.44-.66-10.16-8.83-8.78-14.48-11.45-11.59-5.49-19.8-13.31-19.94-27.22-.13-13.33 5.2-22.78 21.46-28.8Z" style="fill:#767778"/><path d="M163.18 152.15c-18.51-1.57-35.74 5.16-53.48 8.83-6.25-58.92 25.94-94.12 83.57-91.69 25.22 1.06 49.43 6.75 72.28 17.73-1.41 7.3-7.43 11.21-12.03 16.11-13.19 14.06-28.43 26.22-38.17 43.41-5.86 10.34-17.37 9.51-27.1 12.03-8.92.05-17.74-.28-25.07-6.41Z" style="fill:#f8981e"/><path d="M189.97 155.09c14.19-2.25 21.81-11.1 30.21-22.8 12.31-17.16 28.42-31.99 45.37-45.28 19.65 3.02 35.23 16.89 54.65 20.52 11.56 3.11 22.5 6.97 24.84 21-21.25 15.19-35.79 36.7-52.67 56.01-12.43-4.79-23.41-13.16-37.07-14.89-21.82-4.66-44.38-6-65.33-14.58Z" style="fill:#f58320"/><path d="M292.36 184.55c11.67-24.02 26.28-45.32 52.03-56.33 20.37 3.1 33.28 15.05 40.35 33.95.55 8.84-7.31 12.3-11.62 18.01-9.93 13.15-22.13 24.36-32.26 37.34-16.17-10.99-32.33-21.98-48.5-32.97Z" style="fill:#f47a21"/><path d="M340.86 217.52c5.28-20.81 24.62-30.91 36.1-47.02 1.86-2.61 4.93-4.31 5.12-8.01 6.16-1.89 9.55 2.14 11.33 6.65 1.35 3.43 2.89 4.13 5.94 3.67 4.95 7.6 6.31 15.7 3.56 24.41 8.49 31.53-1.47 57.82-24.84 83.86-2.1-29.08-21.16-45.35-37.21-63.55Z" style="fill:#f36f22"/><path d="M162.18 220.69c-10.77 17.57-17.64 36.38-16.86 57.89-43.42-23.65-55.28-67.19-27.98-98.85 8.1-2.64 13.73-12.33 24.11-8.44 8.55 15.77 14.3 32.73 20.73 49.4Z" style="fill:#f8961f"/><path d="M306.49 93.62c-4.16-.92-7.28-3.32-9.69-6.75 6.54-14.48 19.77-22.94 30.36-33.76 26.34 5.7 45.99 20.35 58.91 44.01-5.05 10.14-12.7 18.11-21.24 25.32-15.09-3.66-25.09-16.73-39.6-21.51-6.37-2.1-11.78-6.7-18.74-7.31Z" style="fill:#f48421"/><path d="M327.16 53.11c-5.79 15.15-19.34 23.32-30.36 33.76-27.61-15.38-55.73-29.49-87.64-34.56 39.73-11.69 78.97-14.17 118 .8Z" style="fill:#f47523"/><path d="M162.18 220.69c-12.8-13.44-18.21-29.99-20.22-47.98-.31-6.1 4.61-7.81 8.72-8.66 22.98-4.75 46.01-5.25 68.8 1.27 5.62 1.61 10.3 4.74 11.83 10.99-25.63 10.76-50.45 22.78-69.13 44.37Z" style="fill:#f48221"/><path d="M364.84 121.45c4.47-10.38 11.42-18.59 21.23-24.32 18.92 31.13 22.78 64.79 16.84 100.1-.71-8.65-1.32-17.33-6.81-24.67-8.65-18.12-23.82-32.25-31.26-51.11Z" style="fill:#f79522"/><path d="M364.84 121.45c13.91 14.9 27.64 29.92 31.26 51.11-7.29.3-7.66-9.06-14.02-10.06-7.34-17.17-22.85-25.36-37.69-34.28-5.15-10.3-17.17-12.57-24.2-20.68-2.1-7.07-10.55-7.88-13.7-13.91 19.77-2.96 32.57 11.37 47.81 19.5 3.89 2.07 7.05 5.51 10.54 8.32Z" style="fill:#dd6026"/><path d="M231.31 176.32c-29.24-14.71-59.06-14.92-89.35-3.6-9.33-1.62-15.16 9.04-24.61 7.01 8.31-11.45 20.7-16.44 33.37-20.85 4.56-1.59 10.32-.72 12.46-6.72 8.93.99 17.86 1.97 26.79 2.95 22.63 1.03 45.17 2.45 65.33 14.57-8 2.22-15.99 4.44-23.99 6.65Z" style="fill:#e06527"/><path d="M246.19 269.75c-19.22 26.23-40.48 26.28-59.71-2.07 21.25 15.35 40.2 14.36 59.71 2.07Z" style="fill:#818182"/><path d="M282.52 274.45c19.44 4.28 37.34 9.23 54.26-5.71-11.36 24.7-34.04 27.16-54.26 5.71Z" style="fill:#848385"/><path d="M294.68 413.42c-9.73.14-17.08-3.95-18.76-13.7-1.35-7.8-6.32-6.83-11.25-6.72-5.29.12-11.14-1.82-12.82 7.01-2.49 13.08-13.07 14.44-23.93 13.04-12.64-1.63-20.13-9.69-23.91-21.44-1.83-5.71 2.02-6.43 6.36-7.18 16.31-2.84 32.09-7.61 47.11-14.52 6.23-2.86 10.98 0 16.09 2.29 12.47 5.58 25.04 11.62 38.71 12.61 14.61 1.05 12.36 7.52 7.03 16.2-5.65 9.19-14.39 12.29-24.63 12.4Z" style="fill:#fdfdfd"/></svg>
