<?xml version="1.0" encoding="utf-8"?>
<!-- Generator: Adobe Illustrator 24.0.3, SVG Export Plug-In . SVG Version: 6.00 Build 0)  -->
<svg version="1.1" id="Layer_1" xmlns="http://www.w3.org/2000/svg" xmlns:xlink="http://www.w3.org/1999/xlink" x="0px" y="0px"
	 viewBox="0 0 133 24" style="enable-background:new 0 0 133 24;" xml:space="preserve">
<style type="text/css">
	.st0{fill:#3C3C3C;}
	.st1{fill:#7876D9;}
</style>
<path class="st0" d="M7.4,23.5c-1.4-0.4-2.4-1-3.1-1.9c-0.7-0.9-1-2.1-1-3.5v-2.3c0-1.9-0.8-2.8-2.5-2.8v-1.7c1.7,0,2.5-0.9,2.5-2.8
	V5.9c0-1.4,0.4-2.6,1-3.5C5,1.5,6,0.9,7.4,0.5l0.4,1.3C6.2,2.4,5.4,3.7,5.4,5.9v2.4c0,1.8-0.7,3-2,3.7c1.3,0.7,2,1.9,2,3.7v2.4
	c0,2.1,0.8,3.5,2.4,4L7.4,23.5z M125.6,22.2c1.6-0.5,2.4-1.8,2.5-3.9v-2.6c0-1.8,0.7-3,2.1-3.7c-1.4-0.6-2.1-1.9-2.1-3.7V5.9
	c0-2.2-0.8-3.6-2.4-4.1l0.4-1.3c1.4,0.4,2.4,1,3.1,1.9c0.7,0.9,1,2,1.1,3.5v2.5c0,1.9,0.8,2.8,2.5,2.8v1.7c-1.7,0-2.5,0.9-2.5,2.8
	v2.4c0,1.5-0.4,2.6-1.1,3.5c-0.7,0.9-1.7,1.5-3.1,1.9L125.6,22.2z"/>
<path class="st1" d="M22.2,3.8h4.1v11.7c0,1.1-0.3,2.1-0.8,2.9c-0.5,0.9-1.2,1.5-2.1,2c-0.9,0.5-1.9,0.7-3,0.7
	c-1.9,0-3.3-0.5-4.3-1.4c-1-0.9-1.5-2.3-1.5-4h4.1c0,0.8,0.1,1.3,0.4,1.7c0.3,0.4,0.7,0.5,1.4,0.5c0.6,0,1-0.2,1.3-0.6
	c0.3-0.4,0.5-1,0.5-1.8V3.8z M37.7,16.3c0-0.6-0.2-1.1-0.6-1.4c-0.4-0.3-1.2-0.7-2.2-1s-1.9-0.7-2.6-1c-2.2-1.1-3.3-2.6-3.3-4.5
	c0-0.9,0.3-1.8,0.8-2.5C30.2,5.2,31,4.6,32,4.2c1-0.4,2.1-0.6,3.4-0.6c1.2,0,2.3,0.2,3.3,0.7c1,0.4,1.7,1.1,2.3,1.9
	c0.5,0.8,0.8,1.7,0.8,2.8h-4.1c0-0.7-0.2-1.2-0.6-1.6c-0.4-0.4-1-0.6-1.7-0.6c-0.7,0-1.3,0.2-1.7,0.5c-0.4,0.3-0.6,0.7-0.6,1.2
	c0,0.4,0.2,0.8,0.7,1.2c0.5,0.4,1.3,0.7,2.5,1.1c1.2,0.4,2.1,0.8,2.9,1.2c1.8,1.1,2.8,2.5,2.8,4.4c0,1.5-0.6,2.7-1.7,3.5
	c-1.1,0.9-2.7,1.3-4.6,1.3c-1.4,0-2.6-0.2-3.8-0.7c-1.1-0.5-2-1.2-2.5-2c-0.6-0.9-0.8-1.9-0.8-3h4.1c0,0.9,0.2,1.6,0.7,2
	c0.5,0.4,1.2,0.6,2.3,0.6c0.7,0,1.2-0.1,1.6-0.4C37.5,17.3,37.7,16.9,37.7,16.3z M58.3,12.7c0,1.7-0.3,3.1-0.9,4.4
	c-0.6,1.3-1.5,2.3-2.6,3c-1.1,0.7-2.4,1-3.9,1c-1.5,0-2.7-0.3-3.9-1c-1.1-0.7-2-1.6-2.6-2.9c-0.6-1.2-1-2.7-1-4.3v-1
	c0-1.7,0.3-3.1,0.9-4.4c0.6-1.3,1.5-2.3,2.6-3c1.1-0.7,2.5-1,3.9-1c1.4,0,2.7,0.3,3.9,1c1.1,0.7,2,1.7,2.6,2.9c0.6,1.3,1,2.7,1,4.4
	V12.7z M54.2,12c0-1.7-0.3-3-0.9-3.9c-0.6-0.9-1.4-1.3-2.4-1.3c-2.1,0-3.2,1.5-3.3,4.6l0,1.3c0,1.7,0.3,3,0.8,3.9
	c0.6,0.9,1.4,1.3,2.5,1.3c1,0,1.8-0.4,2.4-1.3c0.6-0.9,0.8-2.2,0.9-3.8V12z M74.7,20.9h-4.1l-6-10.6v10.6h-4.1V3.8h4.1l6,10.6V3.8
	h4.1V20.9z M77.7,19.7c0-0.4,0.1-0.7,0.3-0.9c0.2-0.2,0.6-0.4,1-0.4c0.4,0,0.8,0.1,1,0.4c0.2,0.2,0.4,0.6,0.4,0.9
	c0,0.4-0.1,0.7-0.4,0.9c-0.2,0.2-0.6,0.4-1,0.4c-0.4,0-0.8-0.1-1-0.4C77.8,20.4,77.7,20.1,77.7,19.7z M86.4,20.9h-2.2v-18h2.2V20.9z
	 M92.2,20.9H90V8.2h2.2V20.9z M89.8,4.8c0-0.4,0.1-0.6,0.3-0.9c0.2-0.2,0.5-0.4,1-0.4s0.7,0.1,1,0.4c0.2,0.2,0.3,0.5,0.3,0.9
	c0,0.4-0.1,0.6-0.3,0.9c-0.2,0.2-0.5,0.4-1,0.4s-0.7-0.1-1-0.4C90,5.5,89.8,5.2,89.8,4.8z M97.7,8.2l0.1,1.6c1-1.2,2.2-1.8,3.8-1.8
	c2.7,0,4,1.5,4.1,4.5v8.4h-2.2v-8.4c0-0.9-0.2-1.6-0.6-2c-0.4-0.4-1-0.7-1.9-0.7c-0.7,0-1.3,0.2-1.9,0.6c-0.5,0.4-0.9,0.9-1.2,1.5v9
	h-2.2V8.2H97.7z M112.5,15l-1.4,1.4v4.5h-2.2v-18h2.2v10.9l1.2-1.4l3.9-4.2h2.6l-4.9,5.3l5.5,7.4h-2.5L112.5,15z"/>
</svg>
