<svg xmlns="http://www.w3.org/2000/svg" viewBox="0 0 391 201" role="img"><defs><style>.cls-1{fill:#615d63;}.cls-2{fill:#2d292f;}.cls-3{fill:#55aaa4;}.cls-4{fill:#01918b;}</style></defs><g id="Layer_2" data-name="Layer 2"><polygon class="cls-1" points="163.86 28.51 234.46 9.59 234.46 79.98 163.86 98.9 163.86 28.51"/><path class="cls-2" d="M231.46,13.5V77.68L166.86,95V30.81l64.6-17.31m6-7.82-76.6,20.53v76.6l76.6-20.53V5.68Z"/><polygon class="cls-3" points="163.86 101.75 163.86 32.38 207 61.59 207 131.31 163.86 101.75"/><path class="cls-2" d="M166.86,38,204,63.18v62.44l-37.14-25.45V38m-6-11.31v76.6L210,137V60L160.86,26.73Z"/><polygon class="cls-2" points="237.2 81.62 237.2 6.22 285.99 39.13 285.99 114.53 237.2 81.62"/><path class="cls-2" d="M237.7,7.16,285.49,39.4v74.19L237.7,81.35V7.16m-1-1.88v76.6l49.79,33.59V38.86L236.7,5.28Z"/><polygon class="cls-4" points="212.89 62.21 283.49 43.3 283.49 113.7 212.99 133.07 212.89 62.21"/><path class="cls-2" d="M280.49,47.21v64.21L216,129.13l-.1-64.62,64.6-17.3m6-7.82-76.6,20.52L210,137l76.49-21V39.39Z"/><path class="cls-4" d="M19.81,169.83a7.8,7.8,0,0,1-6.63-3.28c-1.6-2.19-2.41-5.21-2.41-9.08s.82-7,2.46-9.18A8,8,0,0,1,20,145a7.81,7.81,0,0,1,6.9,3.51h.22a26.51,26.51,0,0,1-.5-4.77v-7.67h6.56V169.4h-5l-1.27-3.11H26.6A7.47,7.47,0,0,1,19.81,169.83Zm2.29-5.21a4.43,4.43,0,0,0,3.68-1.45q1.17-1.47,1.27-4.95v-.71c0-2.57-.39-4.41-1.19-5.53A4.42,4.42,0,0,0,22,150.31a3.84,3.84,0,0,0-3.4,1.86,9.92,9.92,0,0,0-1.21,5.38,9.37,9.37,0,0,0,1.22,5.3A4,4,0,0,0,22.1,164.62Z"/><path class="cls-4" d="M48.64,169.83q-5.79,0-9-3.2c-2.17-2.12-3.26-5.14-3.26-9s1-7.12,3-9.31A10.73,10.73,0,0,1,47.67,145c3.39,0,6,1,7.91,2.89a11,11,0,0,1,2.83,8v3.17H43a6.27,6.27,0,0,0,1.65,4.35A5.82,5.82,0,0,0,48.94,165a18,18,0,0,0,4.09-.45,20.4,20.4,0,0,0,4-1.43v5a15.2,15.2,0,0,1-3.67,1.28A22.92,22.92,0,0,1,48.64,169.83Zm-.92-20.18A4.15,4.15,0,0,0,44.46,151a6.07,6.07,0,0,0-1.35,3.73h9.17A5.44,5.44,0,0,0,51,151,4.29,4.29,0,0,0,47.72,149.65Z"/><path class="cls-4" d="M67.22,169.4l-9.12-24h6.83l4.63,13.64a24.82,24.82,0,0,1,1,4.91h.13a21.34,21.34,0,0,1,1-4.91l4.61-13.64h6.83l-9.12,24Z"/><path class="cls-4" d="M95.13,169.83q-5.79,0-9-3.2c-2.17-2.12-3.26-5.14-3.26-9s1-7.12,3-9.31A10.73,10.73,0,0,1,94.16,145c3.39,0,6,1,7.91,2.89s2.82,4.59,2.82,8v3.17H89.45a6.27,6.27,0,0,0,1.65,4.35A5.82,5.82,0,0,0,95.43,165a18,18,0,0,0,4.09-.45,20.4,20.4,0,0,0,4-1.43v5a15.2,15.2,0,0,1-3.67,1.28A22.92,22.92,0,0,1,95.13,169.83Zm-.92-20.18A4.13,4.13,0,0,0,91,151a6,6,0,0,0-1.35,3.73h9.17A5.4,5.4,0,0,0,97.5,151,4.26,4.26,0,0,0,94.21,149.65Z"/><path class="cls-4" d="M114.55,169.4H108V136.07h6.54Z"/><path class="cls-4" d="M141,157.38q0,5.85-3.08,9.15t-8.59,3.3a12.12,12.12,0,0,1-6.09-1.51,10.11,10.11,0,0,1-4-4.34,14.51,14.51,0,0,1-1.42-6.6q0-5.87,3.06-9.12t8.62-3.26a12.07,12.07,0,0,1,6.08,1.5,10,10,0,0,1,4.05,4.3A14.53,14.53,0,0,1,141,157.38Zm-16.56,0a10.06,10.06,0,0,0,1.17,5.38,4.19,4.19,0,0,0,3.8,1.82,4.09,4.09,0,0,0,3.76-1.81,10.14,10.14,0,0,0,1.15-5.39,9.87,9.87,0,0,0-1.16-5.33,4.91,4.91,0,0,0-7.56,0A9.87,9.87,0,0,0,124.41,157.38Z"/><path class="cls-4" d="M157.33,169.83a7.93,7.93,0,0,1-6.62-3.07h-.34c.23,2,.34,3.16.34,3.47v9.71h-6.53V145.45h5.31l.92,3.11h.3A7.56,7.56,0,0,1,157.5,145a7.76,7.76,0,0,1,6.64,3.28c1.6,2.18,2.4,5.22,2.4,9.1a17.93,17.93,0,0,1-1.12,6.66,9.34,9.34,0,0,1-3.21,4.31A8.22,8.22,0,0,1,157.33,169.83Zm-1.93-19.6a4.12,4.12,0,0,0-3.53,1.48c-.75,1-1.13,2.64-1.16,4.92v.71q0,3.85,1.15,5.53a4.09,4.09,0,0,0,3.63,1.67q4.39,0,4.39-7.25a10.37,10.37,0,0,0-1.08-5.3A3.71,3.71,0,0,0,155.4,150.23Z"/><path class="cls-4" d="M180.58,169.83q-5.78,0-9-3.2c-2.18-2.12-3.26-5.14-3.26-9s1-7.12,3-9.31a10.73,10.73,0,0,1,8.32-3.29c3.39,0,6,1,7.91,2.89s2.82,4.59,2.82,8v3.17H174.91a6.27,6.27,0,0,0,1.65,4.35,5.81,5.81,0,0,0,4.32,1.56,18,18,0,0,0,4.1-.45,20.32,20.32,0,0,0,4-1.43v5a15,15,0,0,1-3.66,1.28A23,23,0,0,1,180.58,169.83Zm-.92-20.18a4.13,4.13,0,0,0-3.25,1.32,6,6,0,0,0-1.35,3.73h9.17A5.4,5.4,0,0,0,183,151,4.26,4.26,0,0,0,179.66,149.65Z"/><path class="cls-4" d="M206.84,145a10.56,10.56,0,0,1,2.21.19l-.5,6.13a7.54,7.54,0,0,0-1.93-.22,6.94,6.94,0,0,0-4.87,1.61,5.82,5.82,0,0,0-1.74,4.5V169.4h-6.54v-24h4.95l1,4h.33a8.87,8.87,0,0,1,3-3.25A7.4,7.4,0,0,1,206.84,145Z"/><path class="cls-2" d="M226,166l.55,3.41a14.8,14.8,0,0,1-2.91.34,6.48,6.48,0,0,1-3.25-.67,3.64,3.64,0,0,1-1.63-1.74,13.65,13.65,0,0,1-.47-4.55V149.65h-2.83v-3h2.83V141l3.83-2.32v8H226v3H222.1V163a6.92,6.92,0,0,0,.2,2.12,1.57,1.57,0,0,0,.67.75,2.49,2.49,0,0,0,1.32.28A12.63,12.63,0,0,0,226,166Z"/><path class="cls-2" d="M227.21,158q0-6.32,3.52-9.36a10.59,10.59,0,0,1,7.15-2.52,10.19,10.19,0,0,1,7.67,3.07q3,3.07,3,8.49a15,15,0,0,1-1.32,6.91,9.37,9.37,0,0,1-3.83,3.91,11.16,11.16,0,0,1-5.5,1.39,10.23,10.23,0,0,1-7.72-3.06C228.2,164.81,227.21,161.87,227.21,158Zm4,0q0,4.38,1.9,6.55a6.36,6.36,0,0,0,9.58,0q1.91-2.19,1.91-6.66,0-4.23-1.92-6.4a6.37,6.37,0,0,0-9.57,0Q231.18,153.65,231.18,158Z"/><path class="cls-2" d="M250.52,158q0-6.32,3.51-9.36a10.61,10.61,0,0,1,7.16-2.52,10.19,10.19,0,0,1,7.66,3.07q3,3.07,3,8.49a15,15,0,0,1-1.32,6.91,9.26,9.26,0,0,1-3.83,3.91,11.14,11.14,0,0,1-5.49,1.39,10.25,10.25,0,0,1-7.73-3.06Q250.52,163.79,250.52,158Zm4,0q0,4.38,1.91,6.55a6.35,6.35,0,0,0,9.57,0q1.91-2.19,1.91-6.66,0-4.23-1.92-6.4a6.36,6.36,0,0,0-9.56,0Q254.49,153.65,254.48,158Z"/><path class="cls-2" d="M275.17,169.4V138H279v31.4Z"/><path class="cls-2" d="M298.75,161.07l3.79.49a9.82,9.82,0,0,1-3.18,6.14,9.31,9.31,0,0,1-6.29,2.21,9.77,9.77,0,0,1-7.51-3q-2.83-3-2.83-8.75a15.73,15.73,0,0,1,1.22-6.45,8.49,8.49,0,0,1,3.71-4.14,11.08,11.08,0,0,1,5.44-1.38,9.45,9.45,0,0,1,6.06,1.87,8.62,8.62,0,0,1,3,5.32l-3.75.58a6.22,6.22,0,0,0-1.9-3.45,4.91,4.91,0,0,0-3.29-1.15,6,6,0,0,0-4.73,2.08q-1.81,2.1-1.82,6.61t1.76,6.66a5.7,5.7,0,0,0,4.58,2.08,5.39,5.39,0,0,0,3.79-1.39A6.88,6.88,0,0,0,298.75,161.07Z"/><path class="cls-2" d="M304.74,169.4V138h3.86v11.26a8.62,8.62,0,0,1,6.81-3.12,9.21,9.21,0,0,1,4.39,1,5.87,5.87,0,0,1,2.67,2.75,12.62,12.62,0,0,1,.8,5.1V169.4h-3.85V155a5.94,5.94,0,0,0-1.26-4.21,4.63,4.63,0,0,0-3.54-1.31,6.3,6.3,0,0,0-3.23.88,5.11,5.11,0,0,0-2.15,2.41,11.09,11.09,0,0,0-.64,4.2V169.4Z"/><path class="cls-2" d="M343.62,162.07l4,.5a9.71,9.71,0,0,1-3.49,5.41,11.83,11.83,0,0,1-14.43-1.14q-2.93-3.08-2.92-8.62,0-5.75,3-8.91a10,10,0,0,1,7.66-3.17,9.73,9.73,0,0,1,7.46,3.1q2.9,3.1,2.89,8.74c0,.23,0,.57,0,1h-17a8.74,8.74,0,0,0,2.13,5.74,6.29,6.29,0,0,0,4.75,2,5.9,5.9,0,0,0,3.62-1.11A7.42,7.42,0,0,0,343.62,162.07ZM331,155.84h12.7a7.7,7.7,0,0,0-1.45-4.31,5.94,5.94,0,0,0-4.78-2.22,6.16,6.16,0,0,0-4.47,1.77A7.08,7.08,0,0,0,331,155.84Z"/><path class="cls-2" d="M349.81,162.61l3.81-.6a5.28,5.28,0,0,0,1.79,3.51,6.25,6.25,0,0,0,4.1,1.22,6,6,0,0,0,3.94-1.08,3.23,3.23,0,0,0,1.29-2.54,2.33,2.33,0,0,0-1.14-2.05,16.4,16.4,0,0,0-3.94-1.31,36.61,36.61,0,0,1-5.88-1.85,5.83,5.83,0,0,1-2.49-2.17,5.76,5.76,0,0,1-.84-3.05,5.94,5.94,0,0,1,.69-2.82,6.33,6.33,0,0,1,1.9-2.15,7.89,7.89,0,0,1,2.45-1.12,11.6,11.6,0,0,1,3.33-.46,13.07,13.07,0,0,1,4.71.77,6.4,6.4,0,0,1,3,2.09,8.1,8.1,0,0,1,1.32,3.52l-3.77.51a4.13,4.13,0,0,0-1.49-2.74,5.42,5.42,0,0,0-3.48-1,6.35,6.35,0,0,0-3.79.87,2.56,2.56,0,0,0-1.13,2.06,2.1,2.1,0,0,0,.47,1.35,3.38,3.38,0,0,0,1.47,1c.39.14,1.53.47,3.41,1a48.46,48.46,0,0,1,5.71,1.79,5.84,5.84,0,0,1,2.54,2,5.65,5.65,0,0,1,.92,3.29,6.51,6.51,0,0,1-1.13,3.64,7.24,7.24,0,0,1-3.24,2.63,11.81,11.81,0,0,1-4.8.93c-2.95,0-5.21-.61-6.76-1.84A8.53,8.53,0,0,1,349.81,162.61Z"/><path class="cls-2" d="M380.61,166l.55,3.41a14.8,14.8,0,0,1-2.91.34A6.55,6.55,0,0,1,375,169a3.67,3.67,0,0,1-1.62-1.74,13.56,13.56,0,0,1-.48-4.55V149.65h-2.82v-3h2.82V141l3.84-2.32v8h3.88v3h-3.88V163a6.92,6.92,0,0,0,.2,2.12,1.57,1.57,0,0,0,.67.75,2.48,2.48,0,0,0,1.31.28A12.62,12.62,0,0,0,380.61,166Z"/><polygon class="cls-2" points="243.36 96.05 232.74 97.15 240.44 87.73 238.57 77.32 248.34 80.02 257.81 72.67 256.01 83.66 263.84 89.34 253 93.62 248.17 104.6 243.36 96.05"/><path class="cls-2" d="M257.11,73.85l-1.55,9.43-.1.6.5.37,6.85,5L253,93.08l-.38.15-.16.38-4.34,9.87L244,96.09l-.32-.58-.66.07-9.08,1,6.78-8.31.29-.36-.08-.45L239.21,78,248,80.43l.49.13.39-.3,8.27-6.41m1.4-2.35-10.28,8-10.29-2.85,2,11-8.32,10.18,11.5-1.19,5.14,9.13L253.37,94l11.5-4.54-8.32-6,2-11.94Z"/><path d="M184.05,188.17a6.3,6.3,0,0,1-1.82,1.14,5.31,5.31,0,0,1-1.88.33,3.65,3.65,0,0,1-2.55-.81,2.65,2.65,0,0,1-.89-2.07,2.81,2.81,0,0,1,.33-1.35,2.88,2.88,0,0,1,.88-1,4.3,4.3,0,0,1,1.23-.56,11.85,11.85,0,0,1,1.52-.25,16.53,16.53,0,0,0,3-.59c0-.24,0-.39,0-.45a1.91,1.91,0,0,0-.48-1.47,3.7,3.7,0,0,0-3.72-.15,2.49,2.49,0,0,0-.85,1.49l-1.67-.23a4.11,4.11,0,0,1,.75-1.73,3.23,3.23,0,0,1,1.51-1,6.57,6.57,0,0,1,2.28-.36,6.15,6.15,0,0,1,2.1.3,2.81,2.81,0,0,1,1.18.77,2.65,2.65,0,0,1,.53,1.16,9,9,0,0,1,.09,1.57v2.28a22.6,22.6,0,0,0,.11,3,3.66,3.66,0,0,0,.43,1.21h-1.79A3.82,3.82,0,0,1,184.05,188.17Zm-.14-3.81a12.26,12.26,0,0,1-2.79.65,6.14,6.14,0,0,0-1.48.34,1.5,1.5,0,0,0-.68.55,1.53,1.53,0,0,0,.28,1.95,2.2,2.2,0,0,0,1.51.46,3.61,3.61,0,0,0,1.76-.43,2.68,2.68,0,0,0,1.13-1.18,4.23,4.23,0,0,0,.27-1.71Z"/><path d="M187.76,189.42v-13.9h1.7v13.9Z"/><path d="M191.59,189.42v-13.9h1.7v13.9Z"/><path d="M200.29,193.29l-.19-1.6a3.77,3.77,0,0,0,1,.15,1.84,1.84,0,0,0,.91-.19,1.42,1.42,0,0,0,.56-.53,7.92,7.92,0,0,0,.52-1.27c0-.09.08-.23.15-.41l-3.82-10.09h1.84l2.1,5.83c.27.74.51,1.52.73,2.33a21.69,21.69,0,0,1,.7-2.29l2.15-5.87h1.71l-3.83,10.24a19.13,19.13,0,0,1-1,2.28,3.36,3.36,0,0,1-1,1.24,2.47,2.47,0,0,1-1.4.39A3.37,3.37,0,0,1,200.29,193.29Z"/><path d="M209,184.38a5.21,5.21,0,0,1,1.55-4.14,4.69,4.69,0,0,1,3.17-1.12,4.53,4.53,0,0,1,3.39,1.36,5.18,5.18,0,0,1,1.32,3.76,6.64,6.64,0,0,1-.58,3.06,4.17,4.17,0,0,1-1.7,1.73,4.93,4.93,0,0,1-2.43.61,4.54,4.54,0,0,1-3.42-1.35A5.43,5.43,0,0,1,209,184.38Zm1.75,0a4.26,4.26,0,0,0,.85,2.9,2.7,2.7,0,0,0,2.12,1,2.66,2.66,0,0,0,2.11-1,4.32,4.32,0,0,0,.85-2.94,4.13,4.13,0,0,0-.85-2.83,2.8,2.8,0,0,0-4.23,0A4.23,4.23,0,0,0,210.7,184.38Z"/><path d="M226.49,189.42v-1.48a3.66,3.66,0,0,1-3.19,1.7,4,4,0,0,1-1.66-.34,2.69,2.69,0,0,1-1.15-.85,3.25,3.25,0,0,1-.53-1.27,8.77,8.77,0,0,1-.1-1.59v-6.24h1.7v5.58a9.73,9.73,0,0,0,.11,1.8,1.76,1.76,0,0,0,.68,1.06,2.1,2.1,0,0,0,1.29.38,2.83,2.83,0,0,0,1.44-.39,2.21,2.21,0,0,0,1-1.07,5.56,5.56,0,0,0,.27-2v-5.39H228v10.07Z"/><path d="M230.19,189.42V179.35h1.54v1.53a4.18,4.18,0,0,1,1.08-1.42,2,2,0,0,1,1.1-.34,3.29,3.29,0,0,1,1.75.55l-.59,1.58a2.47,2.47,0,0,0-1.25-.37,1.63,1.63,0,0,0-1,.34,1.87,1.87,0,0,0-.64.94,6.6,6.6,0,0,0-.28,2v5.27Z"/><path d="M244.82,187.89l.25,1.51a6.39,6.39,0,0,1-1.29.15,3,3,0,0,1-1.44-.29,1.69,1.69,0,0,1-.72-.78,6.06,6.06,0,0,1-.21-2v-5.79h-1.25v-1.33h1.25v-2.49l1.7-1v3.52h1.71v1.33h-1.71v5.88a3,3,0,0,0,.09.94.72.72,0,0,0,.29.33,1.08,1.08,0,0,0,.59.13A6.17,6.17,0,0,0,244.82,187.89Z"/><path d="M245.37,184.38a5.18,5.18,0,0,1,1.56-4.14,4.65,4.65,0,0,1,3.16-1.12,4.55,4.55,0,0,1,3.4,1.36,5.17,5.17,0,0,1,1.31,3.76,6.64,6.64,0,0,1-.58,3.06,4.14,4.14,0,0,1-1.69,1.73,5,5,0,0,1-2.44.61,4.5,4.5,0,0,1-3.41-1.35A5.43,5.43,0,0,1,245.37,184.38Zm1.75,0a4.31,4.31,0,0,0,.85,2.9,2.81,2.81,0,0,0,4.24,0,4.37,4.37,0,0,0,.84-2.94,4.13,4.13,0,0,0-.85-2.83,2.67,2.67,0,0,0-2.11-1,2.7,2.7,0,0,0-2.12,1A4.28,4.28,0,0,0,247.12,184.38Z"/><path d="M255.68,184.38a5.18,5.18,0,0,1,1.56-4.14,4.67,4.67,0,0,1,3.17-1.12,4.54,4.54,0,0,1,3.39,1.36,5.18,5.18,0,0,1,1.32,3.76,6.63,6.63,0,0,1-.59,3.06,4.14,4.14,0,0,1-1.69,1.73,5,5,0,0,1-2.43.61,4.54,4.54,0,0,1-3.42-1.35A5.43,5.43,0,0,1,255.68,184.38Zm1.76,0a4.31,4.31,0,0,0,.84,2.9,2.71,2.71,0,0,0,2.13,1,2.67,2.67,0,0,0,2.11-1,4.37,4.37,0,0,0,.84-2.94,4.18,4.18,0,0,0-.84-2.83,2.81,2.81,0,0,0-4.24,0A4.28,4.28,0,0,0,257.44,184.38Z"/><path d="M266.6,189.42v-13.9h1.7v13.9Z"/><path d="M269.78,186.41l1.69-.26a2.31,2.31,0,0,0,.79,1.55,2.73,2.73,0,0,0,1.81.54,2.67,2.67,0,0,0,1.75-.48,1.43,1.43,0,0,0,.57-1.12,1,1,0,0,0-.51-.91,7.13,7.13,0,0,0-1.74-.58,16.28,16.28,0,0,1-2.6-.82,2.51,2.51,0,0,1-1.48-2.31,2.62,2.62,0,0,1,.31-1.24,2.88,2.88,0,0,1,.84-1,3.52,3.52,0,0,1,1.08-.49,5,5,0,0,1,1.48-.21,6,6,0,0,1,2.08.34,2.8,2.8,0,0,1,1.32.93,3.59,3.59,0,0,1,.59,1.56l-1.67.22a1.79,1.79,0,0,0-.66-1.21,2.39,2.39,0,0,0-1.54-.44,2.81,2.81,0,0,0-1.68.39,1.15,1.15,0,0,0-.5.91,1,1,0,0,0,.21.6,1.57,1.57,0,0,0,.65.46l1.51.43a21.77,21.77,0,0,1,2.53.79,2.58,2.58,0,0,1,1.12.9,2.51,2.51,0,0,1,.41,1.46,2.91,2.91,0,0,1-.5,1.61,3.19,3.19,0,0,1-1.43,1.16,5.19,5.19,0,0,1-2.13.41,4.75,4.75,0,0,1-3-.81A3.81,3.81,0,0,1,269.78,186.41Z"/><path d="M284.6,177.48v-2h1.71v2Zm0,11.94V179.35h1.71v10.07Z"/><path d="M288.42,189.42V179.35H290v1.43a3.6,3.6,0,0,1,3.2-1.66,4.15,4.15,0,0,1,1.67.33,2.66,2.66,0,0,1,1.15.86,3.27,3.27,0,0,1,.53,1.26,10.25,10.25,0,0,1,.09,1.66v6.19h-1.71v-6.13a4.76,4.76,0,0,0-.19-1.56,1.66,1.66,0,0,0-.71-.82,2.2,2.2,0,0,0-1.19-.31,2.76,2.76,0,0,0-1.88.69,3.41,3.41,0,0,0-.79,2.63v5.5Z"/><path d="M303,184.38a5.21,5.21,0,0,1,1.55-4.14,4.67,4.67,0,0,1,3.17-1.12,4.54,4.54,0,0,1,3.39,1.36,5.18,5.18,0,0,1,1.32,3.76,6.77,6.77,0,0,1-.58,3.06,4.17,4.17,0,0,1-1.7,1.73,4.93,4.93,0,0,1-2.43.61,4.54,4.54,0,0,1-3.42-1.35A5.43,5.43,0,0,1,303,184.38Zm1.75,0a4.31,4.31,0,0,0,.84,2.9,2.74,2.74,0,0,0,2.13,1,2.67,2.67,0,0,0,2.11-1,4.37,4.37,0,0,0,.85-2.94,4.18,4.18,0,0,0-.85-2.83,2.69,2.69,0,0,0-2.11-1,2.74,2.74,0,0,0-2.13,1A4.28,4.28,0,0,0,304.76,184.38Z"/><path d="M314,189.42V179.35h1.53v1.43a3.61,3.61,0,0,1,3.2-1.66,4.2,4.2,0,0,1,1.68.33,2.57,2.57,0,0,1,1.14.86,3.27,3.27,0,0,1,.53,1.26,10.25,10.25,0,0,1,.09,1.66v6.19h-1.7v-6.13a4.71,4.71,0,0,0-.2-1.56,1.61,1.61,0,0,0-.71-.82,2.18,2.18,0,0,0-1.19-.31,2.78,2.78,0,0,0-1.88.69,3.41,3.41,0,0,0-.79,2.63v5.5Z"/><path d="M331.16,186.17l1.76.22a4.32,4.32,0,0,1-1.54,2.4,4.68,4.68,0,0,1-2.89.85,4.6,4.6,0,0,1-3.5-1.36,5.29,5.29,0,0,1-1.29-3.81,5.54,5.54,0,0,1,1.31-3.95,4.43,4.43,0,0,1,3.39-1.4,4.29,4.29,0,0,1,3.3,1.38,5.45,5.45,0,0,1,1.28,3.86c0,.1,0,.26,0,.46h-7.51a3.88,3.88,0,0,0,.94,2.54,2.77,2.77,0,0,0,2.1.88,2.63,2.63,0,0,0,1.61-.49A3.27,3.27,0,0,0,331.16,186.17Zm-5.6-2.75h5.62a3.39,3.39,0,0,0-.65-1.91,2.59,2.59,0,0,0-2.11-1,2.74,2.74,0,0,0-2,.79A3.12,3.12,0,0,0,325.56,183.42Z"/><path d="M339.49,193.28V179.35H341v1.31a3.9,3.9,0,0,1,1.25-1.16,3.44,3.44,0,0,1,1.67-.38,4,4,0,0,1,2.28.67,4.05,4.05,0,0,1,1.49,1.87,6.91,6.91,0,0,1,.5,2.65,6.73,6.73,0,0,1-.56,2.78,4.18,4.18,0,0,1-3.83,2.55,3.2,3.2,0,0,1-1.53-.36,3.44,3.44,0,0,1-1.11-.91v4.91Zm1.54-8.84a4.33,4.33,0,0,0,.79,2.87,2.42,2.42,0,0,0,1.91.93,2.47,2.47,0,0,0,1.94-1,4.57,4.57,0,0,0,.81-3,4.4,4.4,0,0,0-.79-2.88,2.36,2.36,0,0,0-1.89-1,2.45,2.45,0,0,0-1.93,1A4.54,4.54,0,0,0,341,184.44Z"/><path d="M349.76,189.42v-13.9h1.71v13.9Z"/><path d="M360.2,188.17a6.3,6.3,0,0,1-1.82,1.14,5.37,5.37,0,0,1-1.89.33,3.68,3.68,0,0,1-2.55-.81,2.85,2.85,0,0,1-.55-3.42,2.78,2.78,0,0,1,.88-1,4.07,4.07,0,0,1,1.23-.56,11.63,11.63,0,0,1,1.51-.25,16.67,16.67,0,0,0,3.05-.59c0-.24,0-.39,0-.45a1.87,1.87,0,0,0-.49-1.47,2.86,2.86,0,0,0-1.94-.58,3,3,0,0,0-1.78.43,2.59,2.59,0,0,0-.85,1.49l-1.66-.23a4.23,4.23,0,0,1,.74-1.73,3.28,3.28,0,0,1,1.51-1,6.67,6.67,0,0,1,2.29-.36,6,6,0,0,1,2.09.3,2.86,2.86,0,0,1,1.19.77,2.65,2.65,0,0,1,.53,1.16,10.62,10.62,0,0,1,.08,1.57v2.28a24.6,24.6,0,0,0,.11,3,3.9,3.9,0,0,0,.43,1.21h-1.78A3.59,3.59,0,0,1,360.2,188.17Zm-.14-3.81a12.26,12.26,0,0,1-2.79.65,6.25,6.25,0,0,0-1.49.34,1.53,1.53,0,0,0-.67.55,1.47,1.47,0,0,0-.24.81,1.43,1.43,0,0,0,.52,1.14,2.18,2.18,0,0,0,1.51.46,3.57,3.57,0,0,0,1.75-.43,2.62,2.62,0,0,0,1.13-1.18,4,4,0,0,0,.28-1.71Z"/><path d="M370.51,185.73l1.68.22a4.31,4.31,0,0,1-1.41,2.71,4.06,4.06,0,0,1-2.78,1,4.3,4.3,0,0,1-3.32-1.35,5.46,5.46,0,0,1-1.26-3.87,7,7,0,0,1,.54-2.85,3.76,3.76,0,0,1,1.65-1.84,4.92,4.92,0,0,1,2.4-.61,4.18,4.18,0,0,1,2.68.83,3.8,3.8,0,0,1,1.34,2.36l-1.66.25a2.77,2.77,0,0,0-.84-1.52,2.18,2.18,0,0,0-1.45-.52,2.65,2.65,0,0,0-2.1.93,4.37,4.37,0,0,0-.8,2.92,4.51,4.51,0,0,0,.77,2.95,2.55,2.55,0,0,0,2,.92,2.36,2.36,0,0,0,1.68-.62A3,3,0,0,0,370.51,185.73Z"/><path d="M380.06,186.17l1.76.22a4.32,4.32,0,0,1-1.54,2.4,4.68,4.68,0,0,1-2.89.85,4.59,4.59,0,0,1-3.5-1.36,5.29,5.29,0,0,1-1.29-3.81,5.58,5.58,0,0,1,1.3-3.95,4.47,4.47,0,0,1,3.4-1.4,4.32,4.32,0,0,1,3.3,1.38,5.45,5.45,0,0,1,1.28,3.86c0,.1,0,.26,0,.46h-7.51a3.88,3.88,0,0,0,.94,2.54,2.77,2.77,0,0,0,2.1.88,2.63,2.63,0,0,0,1.61-.49A3.27,3.27,0,0,0,380.06,186.17Zm-5.6-2.75h5.62a3.39,3.39,0,0,0-.65-1.91,2.61,2.61,0,0,0-2.11-1,2.74,2.74,0,0,0-2,.79A3.12,3.12,0,0,0,374.46,183.42Z"/></g></svg>
