<svg id="Layer_1" data-name="Layer 1" xmlns="http://www.w3.org/2000/svg" viewBox="0 0 500 190"><defs><style>.cls-1{fill:#3d5daa;}.cls-2{fill:#333;}</style></defs><title>logo</title><path class="cls-1" d="M80.78,18.24H93.52v95.19H80.78v-5.75q-7.5,7.33-17,7.33a24.13,24.13,0,0,1-18.71-8.23q-7.39-8.4-7.39-21,0-12.3,7.39-20.52A23.55,23.55,0,0,1,63.54,57q9.63,0,17.24,7.89ZM50.69,85.82q0,7.89,4.22,12.85a13.87,13.87,0,0,0,10.94,5,14.52,14.52,0,0,0,11.38-4.85A18.75,18.75,0,0,0,81.57,86.1a18.78,18.78,0,0,0-4.34-12.74A14.34,14.34,0,0,0,66,68.46a14,14,0,0,0-10.93,5A18.23,18.23,0,0,0,50.69,85.82Z"/><path class="cls-1" d="M148,89H108.64q.49,6.77,4.39,10.77a13.4,13.4,0,0,0,10,3.94,13,13,0,0,0,7.83-2.25q3-2.27,6.93-8.34l10.71,6a42.37,42.37,0,0,1-5.24,7.24,27.53,27.53,0,0,1-5.92,5,23.47,23.47,0,0,1-6.82,2.85,33.22,33.22,0,0,1-7.94.9q-12.28,0-19.73-7.89T95.39,86q0-13,7.21-21.08T121.88,57Q134,57,141,64.74T148,86ZM135,78.6q-2.66-10.14-12.8-10.14a13.12,13.12,0,0,0-4.34.7,12.54,12.54,0,0,0-3.69,2,12.79,12.79,0,0,0-2.85,3.18,15,15,0,0,0-1.8,4.23Z"/><path class="cls-1" d="M155.14,58.54l14.21,30.83,14.14-30.83h14.26l-28.52,58.67L140.94,58.54Z"/><path class="cls-1" d="M242.79,89H203.45q.51,6.77,4.4,10.77a13.4,13.4,0,0,0,10,3.94,13,13,0,0,0,7.83-2.25q3-2.27,6.93-8.34l10.71,6a42.37,42.37,0,0,1-5.24,7.24,27.53,27.53,0,0,1-5.92,5,23.58,23.58,0,0,1-6.82,2.85,33.22,33.22,0,0,1-7.94.9q-12.3,0-19.73-7.89T190.21,86q0-13,7.21-21.08T216.7,57q12.12,0,19.16,7.72t7,21.24Zm-13-10.37Q227.13,68.46,217,68.46a13.12,13.12,0,0,0-4.34.7,12.54,12.54,0,0,0-3.69,2,12.79,12.79,0,0,0-2.85,3.18,14.67,14.67,0,0,0-1.8,4.23Z"/><path class="cls-1" d="M257.8,18.24v95.19H245.12V18.24Z"/><path class="cls-1" d="M332.83,143.3H320.15V58.54h12.68v6q7.5-7.5,17-7.49a23.74,23.74,0,0,1,18.66,8.34Q376,73.64,376,86.27q0,12.35-7.38,20.57A23.77,23.77,0,0,1,350.08,115q-9.65,0-17.25-7.72Zm30.16-57q0-7.89-4.29-12.85a13.85,13.85,0,0,0-10.93-5,14.48,14.48,0,0,0-11.33,4.84Q332.11,78.16,332.1,86a18.8,18.8,0,0,0,4.34,12.74,14.24,14.24,0,0,0,11.27,4.9,13.74,13.74,0,0,0,10.88-5A18,18,0,0,0,363,86.32Z"/><path class="cls-1" d="M427.81,89H388.47q.51,6.77,4.4,10.77a13.39,13.39,0,0,0,10,3.94,13,13,0,0,0,7.84-2.25q3-2.27,6.93-8.34l10.71,6a42.92,42.92,0,0,1-5.24,7.24,27.78,27.78,0,0,1-5.92,5,23.7,23.7,0,0,1-6.82,2.85,33.25,33.25,0,0,1-7.95.9q-12.28,0-19.72-7.89T375.23,86q0-13,7.21-21.08T401.72,57q12.11,0,19.16,7.72t7,21.24Zm-13-10.37Q412.15,68.46,402,68.46a13.12,13.12,0,0,0-4.34.7,12.41,12.41,0,0,0-3.69,2,12.79,12.79,0,0,0-2.85,3.18,14.67,14.67,0,0,0-1.8,4.23Z"/><path class="cls-1" d="M430.13,58.54h12.68v4.9a24.25,24.25,0,0,1,6.2-5A14.21,14.21,0,0,1,455.55,57,20.54,20.54,0,0,1,466,60.28l-5.8,11.61a12.17,12.17,0,0,0-7.05-2.59q-10.37,0-10.37,15.67v28.46H430.13Z"/><path class="cls-2" d="M49.7,171.76c-3.08,0-5.44-.86-7.1-2.58s-2.48-4.19-2.48-7.42V137.9H35.43a1.55,1.55,0,0,1-1-.36A1.45,1.45,0,0,1,34,136.4v-2.73l6.38-.81,1.58-12a1.65,1.65,0,0,1,.52-.94,1.49,1.49,0,0,1,1.06-.37H47v13.43H58.24v5H47v23.39A5,5,0,0,0,48.16,165a4.19,4.19,0,0,0,3.08,1.19,5.29,5.29,0,0,0,1.87-.29,7.86,7.86,0,0,0,1.36-.63,11.54,11.54,0,0,0,1-.64,1.24,1.24,0,0,1,.71-.28,1.16,1.16,0,0,1,1,.65l2,3.27a12.81,12.81,0,0,1-4.27,2.6A14.72,14.72,0,0,1,49.7,171.76Z"/><path class="cls-2" d="M77.71,131.55a19.9,19.9,0,0,1,7.7,1.43,16.5,16.5,0,0,1,5.85,4A17.75,17.75,0,0,1,95,143.35,27.35,27.35,0,0,1,95,160a17.93,17.93,0,0,1-3.71,6.31,16.45,16.45,0,0,1-5.85,4,20.28,20.28,0,0,1-7.7,1.4,20.5,20.5,0,0,1-7.75-1.4,16.35,16.35,0,0,1-5.87-4A17.93,17.93,0,0,1,60.38,160a27.35,27.35,0,0,1,0-16.6A17.75,17.75,0,0,1,64.09,137,16.4,16.4,0,0,1,70,133,20.12,20.12,0,0,1,77.71,131.55Zm0,34.78q5.78,0,8.62-3.86t2.85-10.79q0-7-2.85-10.85t-8.62-3.89a12,12,0,0,0-5.09,1A9.47,9.47,0,0,0,69,140.83a12.89,12.89,0,0,0-2.16,4.63,25.15,25.15,0,0,0-.71,6.22q0,6.91,2.87,10.79T77.71,166.33Z"/><path class="cls-2" d="M117.49,131.55a19.86,19.86,0,0,1,7.7,1.43,16.5,16.5,0,0,1,5.85,4,17.75,17.75,0,0,1,3.71,6.33,27.35,27.35,0,0,1,0,16.6,17.93,17.93,0,0,1-3.71,6.31,16.45,16.45,0,0,1-5.85,4,20.24,20.24,0,0,1-7.7,1.4,20.5,20.5,0,0,1-7.75-1.4,16.44,16.44,0,0,1-5.87-4,17.93,17.93,0,0,1-3.71-6.31,27.35,27.35,0,0,1,0-16.6,17.75,17.75,0,0,1,3.71-6.33,16.49,16.49,0,0,1,5.87-4A20.12,20.12,0,0,1,117.49,131.55Zm0,34.78q5.78,0,8.62-3.86T129,151.68q0-7-2.85-10.85t-8.62-3.89a12,12,0,0,0-5.09,1,9.47,9.47,0,0,0-3.62,2.89,12.71,12.71,0,0,0-2.15,4.63,24.66,24.66,0,0,0-.72,6.22q0,6.91,2.87,10.79T117.49,166.33Z"/><path class="cls-2" d="M147.93,114.47v56.67h-6.85V114.47Z"/><path class="cls-2" d="M182.29,139.09a3.34,3.34,0,0,1-.62.66,1.43,1.43,0,0,1-.85.23,2.32,2.32,0,0,1-1.27-.48c-.46-.32-1-.68-1.71-1.06a13.91,13.91,0,0,0-2.5-1.06,13.48,13.48,0,0,0-8.71.54,9.77,9.77,0,0,0-3.68,2.94,13.37,13.37,0,0,0-2.23,4.66,23.1,23.1,0,0,0-.75,6.12,22.32,22.32,0,0,0,.81,6.29,13.37,13.37,0,0,0,2.29,4.61,9.73,9.73,0,0,0,3.57,2.85,10.92,10.92,0,0,0,4.72,1,11.22,11.22,0,0,0,6.79-1.92c.7-.49,1.29-.93,1.77-1.33a2.22,2.22,0,0,1,1.4-.59,1.49,1.49,0,0,1,1.31.65l1.93,2.5a13.62,13.62,0,0,1-2.89,2.69,17.63,17.63,0,0,1-3.48,1.87,19,19,0,0,1-3.91,1.1,24.81,24.81,0,0,1-4.15.34,17.14,17.14,0,0,1-6.79-1.34,15.51,15.51,0,0,1-5.45-3.91,18.15,18.15,0,0,1-3.61-6.29,27.78,27.78,0,0,1-.1-16.54,18.2,18.2,0,0,1,3.54-6.37,16.1,16.1,0,0,1,5.73-4.18,19.26,19.26,0,0,1,7.83-1.5,18.53,18.53,0,0,1,7.25,1.33,17.49,17.49,0,0,1,5.56,3.75Z"/><path class="cls-2" d="M194.94,137.36a20.78,20.78,0,0,1,5.54-4.23,15,15,0,0,1,7-1.58,14.17,14.17,0,0,1,5.63,1.06,11,11,0,0,1,4.08,3,13.26,13.26,0,0,1,2.48,4.68,20.13,20.13,0,0,1,.85,6v24.81h-6.89V146.33a10.48,10.48,0,0,0-2-6.87c-1.35-1.63-3.39-2.44-6.14-2.44a11.46,11.46,0,0,0-5.67,1.46,18.73,18.73,0,0,0-4.87,4v28.7h-6.88V114.47h6.88Z"/><path class="cls-2" d="M258.77,165.68a12.89,12.89,0,0,1-3,2.68,19.33,19.33,0,0,1-3.79,1.86,24.12,24.12,0,0,1-4.17,1.1,25.91,25.91,0,0,1-4.27.36,19.83,19.83,0,0,1-7.45-1.36,16.35,16.35,0,0,1-5.88-4,18.22,18.22,0,0,1-3.87-6.53,26.56,26.56,0,0,1-1.39-8.92,22.81,22.81,0,0,1,1.25-7.62,18.14,18.14,0,0,1,3.6-6.14A16.67,16.67,0,0,1,235.5,133a18.89,18.89,0,0,1,7.61-1.48,17.42,17.42,0,0,1,6.49,1.18,14.74,14.74,0,0,1,5.15,3.38,15.55,15.55,0,0,1,3.41,5.47,20.76,20.76,0,0,1,1.23,7.4,4.49,4.49,0,0,1-.35,2.16,1.44,1.44,0,0,1-1.31.54h-26a22.26,22.26,0,0,0,1,6.42,12.85,12.85,0,0,0,2.52,4.56,10.1,10.1,0,0,0,3.84,2.73,13.31,13.31,0,0,0,5,.91,14.63,14.63,0,0,0,4.44-.6,21.81,21.81,0,0,0,3.21-1.29,22.93,22.93,0,0,0,2.25-1.29,3,3,0,0,1,1.56-.59,1.49,1.49,0,0,1,1.31.65Zm-5.54-18.28a13.47,13.47,0,0,0-.67-4.36,9.92,9.92,0,0,0-2-3.43,8.86,8.86,0,0,0-3.14-2.23,10.68,10.68,0,0,0-4.19-.79,10.52,10.52,0,0,0-7.79,2.87,13.36,13.36,0,0,0-3.56,7.94Z"/><path class="cls-2" d="M286.63,138.59a1.51,1.51,0,0,1-1.43.85,2.66,2.66,0,0,1-1.3-.42c-.49-.28-1.09-.6-1.79-1a18.6,18.6,0,0,0-2.52-1,12.25,12.25,0,0,0-3.47-.44,10.34,10.34,0,0,0-3.11.44,7.66,7.66,0,0,0-2.37,1.21,5.63,5.63,0,0,0-1.5,1.79,4.78,4.78,0,0,0-.52,2.22,3.68,3.68,0,0,0,.87,2.5,7.58,7.58,0,0,0,2.29,1.73,19.4,19.4,0,0,0,3.23,1.29c1.2.37,2.44.77,3.71,1.19s2.51.89,3.71,1.4a13.69,13.69,0,0,1,3.24,1.93,8.33,8.33,0,0,1,3.15,6.85,12.77,12.77,0,0,1-1,5,10.74,10.74,0,0,1-2.85,4,13.65,13.65,0,0,1-4.61,2.64,19.08,19.08,0,0,1-6.32,1,19.56,19.56,0,0,1-7.38-1.33,18.69,18.69,0,0,1-5.62-3.4l1.62-2.62a2.35,2.35,0,0,1,.73-.77,2,2,0,0,1,1.07-.27,2.59,2.59,0,0,1,1.47.54c.51.36,1.13.76,1.86,1.19a14.08,14.08,0,0,0,2.68,1.2,12.26,12.26,0,0,0,3.92.53,10.89,10.89,0,0,0,3.5-.51,7.36,7.36,0,0,0,2.5-1.41,5.51,5.51,0,0,0,1.48-2,6.17,6.17,0,0,0,.49-2.46,4,4,0,0,0-.87-2.67,7.27,7.27,0,0,0-2.29-1.81,18.48,18.48,0,0,0-3.25-1.31c-1.22-.37-2.46-.76-3.73-1.17a39.74,39.74,0,0,1-3.73-1.41,12.85,12.85,0,0,1-3.26-2,9,9,0,0,1-2.28-2.94,9.52,9.52,0,0,1-.87-4.26,10.4,10.4,0,0,1,3.62-7.9,13.19,13.19,0,0,1,4.34-2.48,17.3,17.3,0,0,1,5.89-.93,18.58,18.58,0,0,1,6.91,1.22,16.22,16.22,0,0,1,5.29,3.32Z"/><path class="cls-2" d="M305.37,171.76q-4.62,0-7.1-2.58c-1.66-1.72-2.48-4.19-2.48-7.42V137.9h-4.7a1.55,1.55,0,0,1-1-.36,1.45,1.45,0,0,1-.42-1.14v-2.73l6.39-.81,1.57-12a1.65,1.65,0,0,1,.52-.94,1.49,1.49,0,0,1,1.06-.37h3.46v13.43h11.28v5H302.63v23.39a5,5,0,0,0,1.2,3.66,4.17,4.17,0,0,0,3.07,1.19,5.29,5.29,0,0,0,1.87-.29,8,8,0,0,0,1.37-.63c.38-.23.71-.44,1-.64a1.27,1.27,0,0,1,.71-.28,1.16,1.16,0,0,1,1,.65l2,3.27a12.81,12.81,0,0,1-4.27,2.6A14.71,14.71,0,0,1,305.37,171.76Z"/><path class="cls-1" d="M282.75,77.25l-1.09-19.66h14.63l-1.16,19.66,18.42-7.13L318.06,84,299,89l12.45,15.29-11.8,8.59-10.7-16.6-10.63,16.6-11.87-8.59L279,89.05l-19.07-5,4.51-13.9Z"/></svg>